<svg width="80" height="60" viewBox="0 0 80 60" fill="none" xmlns="http://www.w3.org/2000/svg">
<rect x="0.5" y="0.5" width="79" height="59" rx="9.5" fill="white"/>
<rect x="0.5" y="0.5" width="79" height="59" rx="9.5" stroke="white"/>
<rect x="0.5" y="0.5" width="79" height="59" rx="9.5" stroke="#CCCCCC"/>
<path d="M44 11L44.7321 13.7321L42 14.4641" stroke="white" stroke-width="2" stroke-linecap="round" stroke-linejoin="round"/>
<path d="M44 11L44.7321 13.7321L42 14.4641" stroke="#333333" stroke-width="2" stroke-linecap="round" stroke-linejoin="round"/>
<path d="M48 20C48 24.4183 44.4183 28 40 28C35.5817 28 32 24.4183 32 20C32 15.5817 35.5817 12 40 12C41.4571 12 42.8233 12.3896 44 13.0703" stroke="white" stroke-width="2" stroke-linecap="round"/>
<path d="M48 20C48 24.4183 44.4183 28 40 28C35.5817 28 32 24.4183 32 20C32 15.5817 35.5817 12 40 12C41.4571 12 42.8233 12.3896 44 13.0703" stroke="#333333" stroke-width="2" stroke-linecap="round"/>
<path d="M27.517 38.681H23.981V37.563H27.517V35.964H28.804V37.563H32.366V38.681H28.804V38.733C28.804 39.565 29.129 40.163 30.169 40.826C31.17 41.463 31.794 41.788 32.899 42.321L32.288 43.348C31.17 42.789 30.468 42.412 29.597 41.866C28.739 41.32 28.31 40.93 28.18 40.709H28.167C28.024 40.943 27.582 41.346 26.724 41.892C25.84 42.451 25.034 42.88 24.046 43.361L23.422 42.334C24.553 41.788 25.32 41.385 26.152 40.852C27.153 40.202 27.517 39.578 27.517 38.733V38.681ZM28.817 45.129H33.666V46.221H22.668V45.129H27.517V42.893H28.817V45.129ZM35.683 45.207L35.007 44.18C39.154 41.749 39.336 41.073 39.336 39.227V38.044H35.241V36.939H40.61V39.24C40.61 41.606 40.428 42.334 35.683 45.207ZM44.432 47.82H43.145V35.834H44.432V47.82ZM53.95 44.271L54.054 45.324C51.896 45.545 50.479 45.636 46.371 45.636V44.544C47.645 44.544 48.672 44.544 49.556 44.518V43.335C48.087 43.153 47.229 42.256 47.229 41.32V40.826C47.229 39.773 48.321 38.785 50.128 38.785C51.935 38.785 53.027 39.773 53.027 40.826V41.32C53.027 42.23 52.208 43.088 50.83 43.309V44.479C51.987 44.44 52.91 44.362 53.95 44.271ZM55.926 47.82H54.652V35.834H55.926V40.631H57.72V41.749H55.926V47.82ZM53.508 37.186V38.291H46.618V37.186H49.491V35.743H50.765V37.186H53.508ZM50.128 42.308C51.181 42.308 51.779 41.775 51.779 41.203V40.943C51.779 40.371 51.168 39.838 50.128 39.838C49.075 39.838 48.477 40.371 48.477 40.943V41.203C48.477 41.775 49.088 42.308 50.128 42.308Z" fill="white"/>
<path d="M27.517 38.681H23.981V37.563H27.517V35.964H28.804V37.563H32.366V38.681H28.804V38.733C28.804 39.565 29.129 40.163 30.169 40.826C31.17 41.463 31.794 41.788 32.899 42.321L32.288 43.348C31.17 42.789 30.468 42.412 29.597 41.866C28.739 41.32 28.31 40.93 28.18 40.709H28.167C28.024 40.943 27.582 41.346 26.724 41.892C25.84 42.451 25.034 42.88 24.046 43.361L23.422 42.334C24.553 41.788 25.32 41.385 26.152 40.852C27.153 40.202 27.517 39.578 27.517 38.733V38.681ZM28.817 45.129H33.666V46.221H22.668V45.129H27.517V42.893H28.817V45.129ZM35.683 45.207L35.007 44.18C39.154 41.749 39.336 41.073 39.336 39.227V38.044H35.241V36.939H40.61V39.24C40.61 41.606 40.428 42.334 35.683 45.207ZM44.432 47.82H43.145V35.834H44.432V47.82ZM53.95 44.271L54.054 45.324C51.896 45.545 50.479 45.636 46.371 45.636V44.544C47.645 44.544 48.672 44.544 49.556 44.518V43.335C48.087 43.153 47.229 42.256 47.229 41.32V40.826C47.229 39.773 48.321 38.785 50.128 38.785C51.935 38.785 53.027 39.773 53.027 40.826V41.32C53.027 42.23 52.208 43.088 50.83 43.309V44.479C51.987 44.44 52.91 44.362 53.95 44.271ZM55.926 47.82H54.652V35.834H55.926V40.631H57.72V41.749H55.926V47.82ZM53.508 37.186V38.291H46.618V37.186H49.491V35.743H50.765V37.186H53.508ZM50.128 42.308C51.181 42.308 51.779 41.775 51.779 41.203V40.943C51.779 40.371 51.168 39.838 50.128 39.838C49.075 39.838 48.477 40.371 48.477 40.943V41.203C48.477 41.775 49.088 42.308 50.128 42.308Z" fill="#333333"/>
</svg>
