<svg width="20" height="20" viewBox="0 0 20 20" fill="none" xmlns="http://www.w3.org/2000/svg">
<path d="M15.8334 7.50033C15.8334 10.481 12.98 15.0796 10.5733 17.7308C10.2639 18.0715 9.73626 18.0715 9.42691 17.7308C7.02012 15.0796 4.16675 10.481 4.16675 7.50033C4.16675 4.27866 6.77842 1.66699 10.0001 1.66699C13.2217 1.66699 15.8334 4.27866 15.8334 7.50033Z" stroke="white" stroke-width="1.66667" stroke-linejoin="round"/>
<path d="M15.8334 7.50033C15.8334 10.481 12.98 15.0796 10.5733 17.7308C10.2639 18.0715 9.73626 18.0715 9.42691 17.7308C7.02012 15.0796 4.16675 10.481 4.16675 7.50033C4.16675 4.27866 6.77842 1.66699 10.0001 1.66699C13.2217 1.66699 15.8334 4.27866 15.8334 7.50033Z" stroke="#CCCCCC" stroke-width="1.66667" stroke-linejoin="round"/>
<circle cx="10" cy="7.5" r="2.5" stroke="white" stroke-width="1.66667"/>
<circle cx="10" cy="7.5" r="2.5" stroke="#CCCCCC" stroke-width="1.66667"/>
</svg>
